<svg xmlns="http://www.w3.org/2000/svg" viewBox="0 0 702.96 306"><defs><style>.eb6169e5-36c4-4603-9568-b1adbb35edba{fill:#fff;}.bc895ae1-5b4a-49a1-984f-6e330c8dc297{fill:#bc204b;}.aec79d40-2d66-4209-ac38-b4d18a4e2fd9{font-size:14px;letter-spacing:0em;}.a0171a70-bdf7-4f24-893d-e4a1d26810dc,.a0ee62f2-d789-4cd2-a7fb-b3b22f00db05,.a5d049e5-bcad-47fe-8246-553cf0d480e9,.ae5f33e7-2fae-4f15-bf0d-ace664612b64,.aec79d40-2d66-4209-ac38-b4d18a4e2fd9,.b45ad857-f5c2-4f3e-a238-9f4e413aa322{fill:#444;}.a0ee62f2-d789-4cd2-a7fb-b3b22f00db05,.ae5f33e7-2fae-4f15-bf0d-ace664612b64,.aec79d40-2d66-4209-ac38-b4d18a4e2fd9{font-family:OpenSans-Bold, Open Sans;font-weight:700;}.a163ea42-5dde-4b4d-bccd-edf68c2a681d{font-size:11.84px;font-weight:400;letter-spacing:0em;}.a0171a70-bdf7-4f24-893d-e4a1d26810dc,.a163ea42-5dde-4b4d-bccd-edf68c2a681d,.a5d049e5-bcad-47fe-8246-553cf0d480e9,.b45ad857-f5c2-4f3e-a238-9f4e413aa322{font-family:OpenSans, Open Sans;}.a0ee62f2-d789-4cd2-a7fb-b3b22f00db05,.ae5f33e7-2fae-4f15-bf0d-ace664612b64{font-size:13px;}.ae5f33e7-2fae-4f15-bf0d-ace664612b64{letter-spacing:0em;}.a0171a70-bdf7-4f24-893d-e4a1d26810dc,.b45ad857-f5c2-4f3e-a238-9f4e413aa322{font-size:12px;}.b45ad857-f5c2-4f3e-a238-9f4e413aa322{letter-spacing:-0.01em;}.a0171a70-bdf7-4f24-893d-e4a1d26810dc{letter-spacing:0em;}.a0ee62f2-d789-4cd2-a7fb-b3b22f00db05{letter-spacing:-0.01em;}.a5d049e5-bcad-47fe-8246-553cf0d480e9{font-size:10px;letter-spacing:0em;}.e2cd6f18-055a-4761-a143-3c3a2bb21de1{fill:none;stroke:#bc204b;stroke-miterlimit:10;stroke-width:2px;}</style></defs><g id="a3b67fc5-8e75-4450-964f-8a482e752dc1" data-name="Layer 1"><rect class="eb6169e5-36c4-4603-9568-b1adbb35edba" y="-0.61" width="702.96" height="306.61"/><rect class="eb6169e5-36c4-4603-9568-b1adbb35edba" x="131.3" y="105.98" width="190.4" height="61.8" rx="6.86"/><path class="bc895ae1-5b4a-49a1-984f-6e330c8dc297" d="M314.84,107a5.88,5.88,0,0,1,5.86,5.86v48.09a5.87,5.87,0,0,1-5.86,5.85H138.16a5.87,5.87,0,0,1-5.86-5.85V112.84a5.88,5.88,0,0,1,5.86-5.86H314.84m0-2H138.16a7.87,7.87,0,0,0-7.86,7.86v48.09a7.86,7.86,0,0,0,7.86,7.85H314.84a7.87,7.87,0,0,0,7.86-7.85V112.84a7.87,7.87,0,0,0-7.86-7.86Z"/><rect class="eb6169e5-36c4-4603-9568-b1adbb35edba" x="251.73" y="17.75" width="196.06" height="60.87" rx="6.9"/><path class="bc895ae1-5b4a-49a1-984f-6e330c8dc297" d="M440.89,18.75a5.92,5.92,0,0,1,5.9,5.9V71.72a5.92,5.92,0,0,1-5.9,5.89H258.63a5.91,5.91,0,0,1-5.9-5.89V24.65a5.91,5.91,0,0,1,5.9-5.9H440.89m0-2H258.63a7.9,7.9,0,0,0-7.9,7.9V71.72a7.9,7.9,0,0,0,7.9,7.89H440.89a7.91,7.91,0,0,0,7.9-7.89V24.65a7.91,7.91,0,0,0-7.9-7.9Z"/><rect class="eb6169e5-36c4-4603-9568-b1adbb35edba" x="373.57" y="105.98" width="197.22" height="61.8" rx="6.96"/><path class="bc895ae1-5b4a-49a1-984f-6e330c8dc297" d="M563.83,107a6,6,0,0,1,6,6v47.87a6,6,0,0,1-6,6H380.53a6,6,0,0,1-6-6V113a6,6,0,0,1,6-6h183.3m0-2H380.53a8,8,0,0,0-8,8v47.87a8,8,0,0,0,8,8h183.3a8,8,0,0,0,8-8V113a8,8,0,0,0-8-8Z"/><rect class="eb6169e5-36c4-4603-9568-b1adbb35edba" x="14.16" y="195.19" width="145.88" height="74.78" rx="6.65"/><path class="bc895ae1-5b4a-49a1-984f-6e330c8dc297" d="M153.39,196.19a5.66,5.66,0,0,1,5.64,5.65v61.48a5.66,5.66,0,0,1-5.64,5.65H20.8a5.66,5.66,0,0,1-5.64-5.65V201.84a5.66,5.66,0,0,1,5.64-5.65H153.39m0-2H20.8a7.65,7.65,0,0,0-7.64,7.65v61.48A7.65,7.65,0,0,0,20.8,271H153.39a7.65,7.65,0,0,0,7.64-7.65V201.84a7.65,7.65,0,0,0-7.64-7.65Z"/><rect class="eb6169e5-36c4-4603-9568-b1adbb35edba" x="371.06" y="195.19" width="145.88" height="74.78" rx="6.65"/><path class="bc895ae1-5b4a-49a1-984f-6e330c8dc297" d="M510.29,196.19a5.66,5.66,0,0,1,5.65,5.65v61.48a5.66,5.66,0,0,1-5.65,5.65H377.71a5.66,5.66,0,0,1-5.65-5.65V201.84a5.66,5.66,0,0,1,5.65-5.65H510.29m0-2H377.71a7.66,7.66,0,0,0-7.65,7.65v61.48a7.66,7.66,0,0,0,7.65,7.65H510.29a7.66,7.66,0,0,0,7.65-7.65V201.84a7.66,7.66,0,0,0-7.65-7.65Z"/><rect class="eb6169e5-36c4-4603-9568-b1adbb35edba" x="534.36" y="195.19" width="154.44" height="74.78" rx="6.81"/><path class="bc895ae1-5b4a-49a1-984f-6e330c8dc297" d="M682,196.19A5.82,5.82,0,0,1,687.8,202v61.16A5.83,5.83,0,0,1,682,269H541.18a5.84,5.84,0,0,1-5.82-5.81V202a5.83,5.83,0,0,1,5.82-5.81H682m0-2H541.18a7.82,7.82,0,0,0-7.82,7.81v61.16a7.83,7.83,0,0,0,7.82,7.81H682a7.82,7.82,0,0,0,7.81-7.81V202a7.81,7.81,0,0,0-7.81-7.81Z"/><rect class="eb6169e5-36c4-4603-9568-b1adbb35edba" x="183.5" y="195.19" width="145.88" height="92.44" rx="7.3"/><path class="bc895ae1-5b4a-49a1-984f-6e330c8dc297" d="M322.08,196.19a6.32,6.32,0,0,1,6.3,6.29v77.85a6.32,6.32,0,0,1-6.3,6.29H190.79a6.31,6.31,0,0,1-6.29-6.29V202.48a6.31,6.31,0,0,1,6.29-6.29H322.08m0-2H190.79a8.3,8.3,0,0,0-8.29,8.29v77.85a8.3,8.3,0,0,0,8.29,8.29H322.08a8.31,8.31,0,0,0,8.3-8.29V202.48a8.31,8.31,0,0,0-8.3-8.29Z"/><text class="aec79d40-2d66-4209-ac38-b4d18a4e2fd9" transform="translate(262.89 44.26)">Observed Characteristics<tspan class="a163ea42-5dde-4b4d-bccd-edf68c2a681d"><tspan x="58.37" y="17.11">(Variables)</tspan></tspan></text><text class="ae5f33e7-2fae-4f15-bf0d-ace664612b64" transform="translate(146.74 133.54)">Qualititative/Categorical<tspan x="49.83" y="16">Variables</tspan></text><text class="ae5f33e7-2fae-4f15-bf0d-ace664612b64" transform="translate(27.89 219.94)">Nominal Variables</text><text class="b45ad857-f5c2-4f3e-a238-9f4e413aa322" transform="translate(48.05 237.95)">e.g., hair color</text><text class="ae5f33e7-2fae-4f15-bf0d-ace664612b64" transform="translate(383.2 126.19)">Quantitative/Measurement<tspan x="59.06" y="16">Variables</tspan><tspan class="a163ea42-5dde-4b4d-bccd-edf68c2a681d"><tspan x="58.15" y="31.13">(numerical)</tspan></tspan></text><text class="ae5f33e7-2fae-4f15-bf0d-ace664612b64" transform="translate(385.9 219.94)">Discrete Variables</text><text class="a0171a70-bdf7-4f24-893d-e4a1d26810dc" transform="translate(401.93 237.95)">e.g., number of <tspan x="21.4" y="14">siblings</tspan></text><text class="a0ee62f2-d789-4cd2-a7fb-b3b22f00db05" transform="translate(543.63 219.94)">Continuous Variables</text><text class="a0171a70-bdf7-4f24-893d-e4a1d26810dc" transform="translate(570.73 237.95)">e.g., time since <tspan x="15.9" y="15">last meal</tspan></text><text class="ae5f33e7-2fae-4f15-bf0d-ace664612b64" transform="translate(198.16 219.94)">Ordinal Variables</text><text class="b45ad857-f5c2-4f3e-a238-9f4e413aa322" transform="translate(192.67 237.95)">e.g., agreement with a <tspan x="26.64" y="14">tax proposal</tspan></text><text class="a5d049e5-bcad-47fe-8246-553cf0d480e9" transform="translate(195.43 271.81)">(agree / neutral / disagree)</text><path class="e2cd6f18-055a-4761-a143-3c3a2bb21de1" d="M301.39,79.07v7.87A4.43,4.43,0,0,1,297,91.37h-66.7a3.76,3.76,0,0,0-3.76,3.76v8.54"/><polygon class="bc895ae1-5b4a-49a1-984f-6e330c8dc297" points="220.04 98.43 221.19 97.35 226.5 103.06 231.8 97.35 232.96 98.43 226.5 105.38 220.04 98.43"/><path class="e2cd6f18-055a-4761-a143-3c3a2bb21de1" d="M199.67,168.33v7.88a4.42,4.42,0,0,1-4.43,4.42H90.86a3.77,3.77,0,0,0-3.77,3.77v8.53"/><polygon class="bc895ae1-5b4a-49a1-984f-6e330c8dc297" points="80.63 187.69 81.79 186.62 87.09 192.32 92.4 186.62 93.56 187.69 87.09 194.64 80.63 187.69"/><path class="e2cd6f18-055a-4761-a143-3c3a2bb21de1" d="M246.67,168.33v7.88a4.43,4.43,0,0,0,4.43,4.42h1.57a3.77,3.77,0,0,1,3.77,3.77v8.53"/><polygon class="bc895ae1-5b4a-49a1-984f-6e330c8dc297" points="249.97 187.69 251.13 186.62 256.44 192.32 261.74 186.62 262.9 187.69 256.44 194.64 249.97 187.69"/><path class="e2cd6f18-055a-4761-a143-3c3a2bb21de1" d="M453.8,168.33v7.88a4.42,4.42,0,0,1-4.42,4.42H447.8A3.76,3.76,0,0,0,444,184.4v8.53"/><polygon class="bc895ae1-5b4a-49a1-984f-6e330c8dc297" points="437.58 187.69 438.74 186.62 444.04 192.32 449.34 186.62 450.5 187.69 444.04 194.64 437.58 187.69"/><path class="e2cd6f18-055a-4761-a143-3c3a2bb21de1" d="M499.3,168.33v7.88a4.42,4.42,0,0,0,4.43,4.42H607.82a3.76,3.76,0,0,1,3.76,3.77v8.53"/><polygon class="bc895ae1-5b4a-49a1-984f-6e330c8dc297" points="605.12 187.69 606.28 186.62 611.58 192.32 616.89 186.62 618.04 187.69 611.58 194.64 605.12 187.69"/><path class="e2cd6f18-055a-4761-a143-3c3a2bb21de1" d="M397.29,79.07v7.87a4.42,4.42,0,0,0,4.42,4.43h66.71a3.76,3.76,0,0,1,3.76,3.76v8.54"/><polygon class="bc895ae1-5b4a-49a1-984f-6e330c8dc297" points="465.72 98.43 466.88 97.35 472.18 103.06 477.48 97.35 478.64 98.43 472.18 105.38 465.72 98.43"/></g></svg>